<?xml version="1.0" standalone="no"?><!DOCTYPE svg PUBLIC "-//W3C//DTD SVG 1.1//EN" "http://www.w3.org/Graphics/SVG/1.1/DTD/svg11.dtd"><svg t="1715358525706" class="icon" viewBox="0 0 1299 1024" version="1.1" xmlns="http://www.w3.org/2000/svg" p-id="1121" xmlns:xlink="http://www.w3.org/1999/xlink" width="253.7109375" height="200"><path d="M574.563591 18.334963c62.818953-10.163392 128.421347-4.5199 188.967581 15.474912 1.353416 0.280898 4.009177 0.817157 5.337057 1.098055 42.415561 14.453466 81.536958 37.282793 116.776858 64.759701 38.559601 31.05197 70.658554 69.892469 94.458255 113.252868 28.472818 49.948728 47.190823 107.12419 45.530972 165.040199-31.690374 13.278803-58.631022 35.393117-84.703441 57.328679-22.34414 19.433017-37.793516 44.969177-55.796509 68.181546 3.626135-22.318603 30.745536-35.852768 30.72-59.371571 3.728279-18.437107 3.038803-37.257257 3.421845-55.949726 0.076608-16.317606-1.736459-32.558603-5.362593-48.467631-5.796708-30.439102-18.794613-59.116209-35.035611-85.367382-28.115312-46.603491-70.913915-83.860748-120.734963-105.694164-28.932469-12.844688-60.341945-19.943741-91.802493-22.573965-13.610773 0.99591-27.119401-3.013267-40.62803-0.587332-11.057157 1.481097-22.522893-0.842693-33.273616 2.706833-5.081696 0.561796-10.163392 0.970374-15.219551 1.481097-14.836509 3.677207-29.647481 7.507631-44.075412 12.512718-36.10813 13.559701-68.360299 35.801696-96.34793 62.078404-26.557606 27.936559-48.646384 60.571771-61.976259 96.858654-3.549526 11.006085-8.963192 21.935561-8.273716 33.758803a117.1599 117.1599 0 0 1 48.033516 14.683292c0.919302 1.53217 2.757905 4.622045 3.702743 6.17975-24.131671-0.076608-45.505436 17.849776-52.553416 40.321596-3.498454 8.835511-4.570973 18.334963-5.081696 27.757806l-0.919302-9.805886c-0.536259 9.678204-0.689476 19.356409-0.868229 29.034614-27.247082-1.123591-54.621845 1.736459-80.796409 9.448379-65.934364 20.505536-120.811571 72.956808-144.764489 137.665436-15.730274 39.529975-17.28798 82.839302-13.483092 124.718604 3.268628 17.236908 6.613865 34.754713 13.815062 50.86803 0.204289 0.893766 0.638404 2.655761 0.842693 3.549526 14.42793 32.609676 33.656658 63.865935 60.903741 87.359202 31.971272 28.268529 72.8802 48.033516 116.112918 48.518703 49.616758 0.178753 99.233516-0.434115 148.850274 0.33197 0.280898 34.90793 1.302344 69.841397 0.893766 104.774863-6.281895 1.86414-12.870224 1.838603-19.356409 1.685387-49.489077-0.204289-98.952618 0.280898-148.441696-0.076609-53.06414-5.132768-104.877007-24.719002-147.241496-57.303142-46.577955-34.601496-81.971072-82.839302-105.92399-135.392718-15.117406-33.656658-24.565786-69.790324-28.115312-106.511322-6.077606-41.802693-1.710923-84.601297 8.452469-125.40808 12.333965-48.825137 36.389027-94.662544 68.360299-133.477506 39.223541-46.297057 90.934264-82.532868 148.977955-100.816758 2.042893-6.077606 3.421845-12.333965 4.749726-18.590324 5.745636-20.735362 11.848778-41.394115 19.764987-61.414464 13.866135-35.290973 31.307332-69.356209 53.549327-100.127282 38.406384-48.876209 87.410274-89.836209 143.385536-117.185436 15.602594-7.839601 31.792519-14.479002 48.084589-20.760898l5.7201-1.225736c19.764988-7.431022 40.525885-12.078603 61.363391-15.321695zM1096.650374 384.6001c-20.633217-3.115411-41.470723-3.958105-62.129476-7.226733 24.412569-2.681297 48.697456 1.608778 72.34394 7.226733l0.051072 1.710922c26.86404 4.877406 50.689277 20.020349 72.650374 35.648479 20.531072 17.645486 39.836409 37.129576 54.085586 60.341945-3.753815-3.472918-7.431022-7.022444-10.980548-10.69965-25.178653-34.371671-59.831222-62.870025-100.229427-77.246883l0.025536-2.502544c-1.99182 0.153217-5.949925 0.434115-7.941745 0.561796l0.357506-2.425936c-6.05207-0.970374-11.976459-2.52808-17.977456-3.626134l-0.255362-1.761995z" p-id="1122" fill="#034FD8"></path><path d="M624.665536 437.919601c20.990723-1.838603 42.364489-0.766085 62.538055 5.796708 2.681297 0.893766 5.362594 1.787531 8.069426 2.655761 40.857855 15.29616 72.497157 49.923192 88.278504 90.142643 4.009177 11.389127 7.507631 23.084688 8.503541 35.163292 0.434115 5.7201 1.225736 11.4402 3.294165 16.828329 11.695561-0.740549 23.110224 2.221646 34.754713 2.655761 37.231721 3.753815 72.216259 24.923292 92.69626 56.281696 9.856958 14.300249 15.525985 31.026434 18.998902 47.931371 1.761995 8.24818 1.149127 16.802793 3.217556 25.025437l0.510724 5.694563c-12.972369 1.506633-26.046883 0.485187-39.070325 0.766085-46.092768 0.051072-92.185536 0.153217-138.278304-0.051072-9.473915 18.718005-19.433017 37.76798-35.469726 51.812867-25.33187 21.271621-58.452269 34.192918-91.776957 31.971272-48.212269-2.042893-97.956708-29.545337-116.725786-75.587032-1.557706-3.396309-3.370773-8.426933-7.967282-7.967282-53.319501-0.357506-106.639002 0.229825-159.958503-0.459651-1.966284-25.765985 3.52399-52.298055 17.007082-74.463441 16.802793-28.115312 45.428828-47.701546 76.302045-57.456359 3.421845-0.868229 6.818155-1.736459 10.214464-2.732369 5.081696-0.561796 10.291072-0.919302 15.142942-2.706833 4.647581-0.536259 9.320698-0.893766 13.993816-1.225736 0.33197-4.468828 0.66394-8.91212 1.098055-13.355411 3.600599-29.341047 14.147032-58.222444 33.554513-80.847482 25.485087-30.05606 62.308229-49.66783 101.07212-55.873117z" p-id="1123" fill="#034FD8"></path><path d="M1210.388429 499.89586c8.197107-3.728279 17.007082-6.920299 23.518803-13.406483 21.118404 31.38394 35.214364 67.109027 45.914015 103.242693 4.928479 19.2798 7.660848 39.044788 9.167481 58.835312-0.510723 28.013167 2.017357 56.25616-2.65576 84.013965-0.99591 12.206284-4.034713 24.106135-6.58833 36.057057-11.4402 43.871122-29.826234 86.261147-56.945636 122.777855-35.929377 48.391022-85.214165 87.818853-142.49177 107.532768-21.220549 7.992818-43.922195 10.623042-66.342943 12.870225-52.834314 0.255362-105.694165-0.102145-158.528479 0.178753-4.009177 0.127681-7.865137-0.868229-11.670024-1.889676-2.042893-12.359501 0.280898-24.795611-0.102145-37.206184 0.383042-22.599501-0.178753-45.173466 0.102145-67.747432 54.877207-0.510723 109.831022 0.868229 164.708229-0.66394 78.447082-13.278803 142.925885-78.012968 163.380349-153.855362 16.062244-59.422643 9.882494-123.671621-12.461646-180.642793-17.339052-41.675012-47.829227-77.042594-84.269326-103.370374 26.838504 12.129676 43.896658 37.359401 68.998703 51.685187 9.627132 3.013267 19.892668 1.608778 29.213366-1.838603 12.512718-5.107232 24.923292-10.57197 37.052968-16.572968z" p-id="1124" fill="#034FD8"></path></svg>