<?xml version="1.0" encoding="UTF-8" ?>
<!DOCTYPE svg PUBLIC "-//W3C//DTD SVG 1.1//EN" "http://www.w3.org/Graphics/SVG/1.1/DTD/svg11.dtd">
<svg width="509pt" height="401pt" viewBox="0 0 509 401" version="1.1" xmlns="http://www.w3.org/2000/svg">
<g id="#05111dff">
<path fill="#05111d" opacity="1.00" d=" M 225.00 7.18 C 249.60 3.20 275.29 5.41 299.00 13.24 C 299.53 13.35 300.57 13.56 301.09 13.67 C 317.70 19.33 333.02 28.27 346.82 39.03 C 361.92 51.19 374.49 66.40 383.81 83.38 C 394.96 102.94 402.29 125.33 401.64 148.01 C 389.23 153.21 378.68 161.87 368.47 170.46 C 359.72 178.07 353.67 188.07 346.62 197.16 C 348.04 188.42 358.66 183.12 358.65 173.91 C 360.11 166.69 359.84 159.32 359.99 152.00 C 360.02 145.61 359.31 139.25 357.89 133.02 C 355.62 121.10 350.53 109.87 344.17 99.59 C 333.16 81.34 316.40 66.75 296.89 58.20 C 285.56 53.17 273.26 50.39 260.94 49.36 C 255.61 49.75 250.32 48.18 245.03 49.13 C 240.70 49.71 236.21 48.80 232.00 50.19 C 230.01 50.41 228.02 50.57 226.04 50.77 C 220.23 52.21 214.43 53.71 208.78 55.67 C 194.64 60.98 182.01 69.69 171.05 79.98 C 160.65 90.92 152.00 103.70 146.78 117.91 C 145.39 122.22 143.27 126.50 143.54 131.13 C 150.10 131.65 156.62 133.64 162.35 136.88 C 162.71 137.48 163.43 138.69 163.80 139.30 C 154.35 139.27 145.98 146.29 143.22 155.09 C 141.85 158.55 141.43 162.27 141.23 165.96 C 141.11 164.68 140.99 163.40 140.87 162.12 C 140.66 165.91 140.60 169.70 140.53 173.49 C 129.86 173.05 119.14 174.17 108.89 177.19 C 83.07 185.22 61.58 205.76 52.20 231.10 C 46.04 246.58 45.43 263.54 46.92 279.94 C 48.20 286.69 49.51 293.55 52.33 299.86 C 52.41 300.21 52.58 300.90 52.66 301.25 C 58.31 314.02 65.84 326.26 76.51 335.46 C 89.03 346.53 105.05 354.27 121.98 354.46 C 141.41 354.53 160.84 354.29 180.27 354.59 C 180.38 368.26 180.78 381.94 180.62 395.62 C 178.16 396.35 175.58 396.34 173.04 396.28 C 153.66 396.20 134.29 396.39 114.91 396.25 C 94.13 394.24 73.84 386.57 57.25 373.81 C 39.01 360.26 25.15 341.37 15.77 320.79 C 9.85 307.61 6.15 293.46 4.76 279.08 C 2.38 262.71 4.09 245.95 8.07 229.97 C 12.90 210.85 22.32 192.90 34.84 177.70 C 50.20 159.57 70.45 145.38 93.18 138.22 C 93.98 135.84 94.52 133.39 95.04 130.94 C 97.29 122.82 99.68 114.73 102.78 106.89 C 108.21 93.07 115.04 79.73 123.75 67.68 C 138.79 48.54 157.98 32.50 179.90 21.79 C 186.01 18.72 192.35 16.12 198.73 13.66 C 199.29 13.54 200.41 13.30 200.97 13.18 C 208.71 10.27 216.84 8.45 225.00 7.18 Z" />
<path fill="#05111d" opacity="1.00" d=" M 429.45 150.61 C 421.37 149.39 413.21 149.06 405.12 147.78 C 414.68 146.73 424.19 148.41 433.45 150.61 L 433.47 151.28 C 443.99 153.19 453.32 159.12 461.92 165.24 C 469.96 172.15 477.52 179.78 483.10 188.87 C 481.63 187.51 480.19 186.12 478.80 184.68 C 468.94 171.22 455.37 160.06 439.55 154.43 L 439.56 153.45 C 438.78 153.51 437.23 153.62 436.45 153.67 L 436.59 152.72 C 434.22 152.34 431.90 151.73 429.55 151.30 L 429.45 150.61 Z" />
<path fill="#05111d" opacity="1.00" d=" M 244.62 171.49 C 252.84 170.77 261.21 171.19 269.11 173.76 C 270.16 174.11 271.21 174.46 272.27 174.80 C 288.27 180.79 300.66 194.35 306.84 210.10 C 308.41 214.56 309.78 219.14 310.17 223.87 C 310.34 226.11 310.65 228.35 311.46 230.46 C 316.04 230.17 320.51 231.33 325.07 231.50 C 339.65 232.97 353.35 241.26 361.37 253.54 C 365.23 259.14 367.45 265.69 368.81 272.31 C 369.50 275.54 369.26 278.89 370.07 282.11 C 370.12 282.66 370.22 283.78 370.27 284.34 C 365.19 284.93 360.07 284.53 354.97 284.64 C 336.92 284.66 318.87 284.70 300.82 284.62 C 297.11 291.95 293.21 299.41 286.93 304.91 C 277.01 313.24 264.04 318.30 250.99 317.43 C 232.11 316.63 212.63 305.86 205.28 287.83 C 204.67 286.50 203.96 284.53 202.16 284.71 C 181.28 284.57 160.40 284.80 139.52 284.53 C 138.75 274.44 140.90 264.05 146.18 255.37 C 152.76 244.36 163.97 236.69 176.06 232.87 C 177.40 232.53 178.73 232.19 180.06 231.80 C 182.05 231.58 184.09 231.44 185.99 230.74 C 187.81 230.53 189.64 230.39 191.47 230.26 C 191.60 228.51 191.73 226.77 191.90 225.03 C 193.31 213.54 197.44 202.23 205.04 193.37 C 215.02 181.60 229.44 173.92 244.62 171.49 Z" />
<path fill="#05111d" opacity="1.00" d=" M 473.99 195.76 C 477.20 194.30 480.65 193.05 483.20 190.51 C 491.47 202.80 496.99 216.79 501.18 230.94 C 503.11 238.49 504.18 246.23 504.77 253.98 C 504.57 264.95 505.56 276.01 503.73 286.88 C 503.34 291.66 502.15 296.32 501.15 301.00 C 496.67 318.18 489.47 334.78 478.85 349.08 C 464.78 368.03 445.48 383.47 423.05 391.19 C 414.74 394.32 405.85 395.35 397.07 396.23 C 376.38 396.33 355.68 396.19 334.99 396.30 C 333.42 396.35 331.91 395.96 330.42 395.56 C 329.62 390.72 330.53 385.85 330.38 380.99 C 330.53 372.14 330.31 363.30 330.42 354.46 C 351.91 354.26 373.43 354.80 394.92 354.20 C 425.64 349.00 450.89 323.65 458.90 293.95 C 465.19 270.68 462.77 245.52 454.02 223.21 C 447.23 206.89 435.29 193.04 421.02 182.73 C 431.53 187.48 438.21 197.36 448.04 202.97 C 451.81 204.15 455.83 203.60 459.48 202.25 C 464.38 200.25 469.24 198.11 473.99 195.76 Z" />
</g>
</svg>
