<?xml version="1.0" encoding="utf-8"?>
<!-- Generator: Adobe Illustrator 27.5.0, SVG Export Plug-In . SVG Version: 6.00 Build 0)  -->
<svg version="1.1" id="图层_1" xmlns="http://www.w3.org/2000/svg" xmlns:xlink="http://www.w3.org/1999/xlink" x="0px" y="0px"
	 viewBox="0 0 3354.5 2849.7" style="enable-background:new 0 0 3354.5 2849.7;" xml:space="preserve">
<style type="text/css">
	.st0{fill:#2D3DF2;}
	.st1{fill:#E7652A;}
</style>
<g>
	<path class="st0" d="M2688.5,1237.9c4.5,2.1,9.1,4,13.3,6.5c36.7,21.3,71.7,45,101.5,75.5c15,15.3,30,30.5,44,46.7
		c7.3,8.4,15.2,10.5,25.2,8c3.9-0.9,7.7-2,11.5-3.2c48.5-15.4,95.7-33.9,140.1-58.9c12.5-7.1,24.6-15,37-22.5
		c2.5-1.5,5.2-2.8,8.3-4.5c2.3,2.5,4.7,4.3,6.1,6.8c19,32.7,37.1,65.9,52.8,100.3c11.4,24.9,21.9,50.2,29.5,76.5
		c8.3,28.6,16.6,57.3,23.3,86.4c5.9,25.6,10.6,51.6,12.8,77.9c1.3,15.4,3.1,30.7,4.7,46c0.2,2,0.5,4,0.6,5.9
		c0.3,26.9,1.3,53.7,0.8,80.6c-0.7,36.3-5.2,72.3-11.3,108.2c-5.5,32.4-12.5,64.4-22.2,95.8c-12.6,41-28.2,80.8-48.1,118.8
		c-10.6,20.2-22.9,39.6-34.6,59.3c-4.3,7.3-8.8,14.4-13.4,21.5c-28.3,43.6-61.6,83.2-98.6,119.5c-35.2,34.6-73.1,66.2-114.2,93.6
		c-26.9,17.9-55.3,33.4-84.6,47.2c-36.6,17.3-75,29.3-113.6,40.8c-16.1,4.8-33.1,6.8-49.7,10c-25.4,5-51.3,6.8-77,8.4
		c-22.3,1.4-44.8,0.8-67.2,0.9c-74.2,0.5-148.4,0.9-222.6,1.2c-17.9,0.1-35.8,0-53.7,0c-25.9,0-51.8,0.1-77.6,0.1
		c-252.5,0.4-505,1-757.5,1.2c-151.9,0.2-303.8,0.2-455.7-0.3c-26.3-0.1-52.6-2.9-78.9-4.6c-44.4-3-87.6-13-130.2-25
		c-22.9-6.4-45.3-15.1-67.4-24c-36.5-14.8-72-31.6-105.5-52.4c-19-11.8-37.2-24.8-55.5-37.8c-30.6-21.7-58.2-46.7-84.6-73.1
		c-60.5-60.4-108.8-129.1-145-206.6c-26.3-56.2-45.1-114.8-58.8-175c-6.6-29.1-10.3-58.7-13.6-88.4c-4.4-40.3-3.9-80.6-1.8-120.8
		c2.6-49.2,9.6-98,21.8-145.8c15.8-61.9,37.6-121.5,67.4-178.2c21.8-41.5,46.2-81.3,74.4-118.7c37.3-49.5,79.6-94.2,127.8-133.3
		c24-19.5,48.7-37.9,75.1-54c41.7-25.4,85-47.7,131.7-62.9c12.8-4.2,25.4-8.8,38.3-12.5c8.1-2.3,12.6-6.9,14.4-15.1
		c3.9-17.5,7.9-34.9,12.5-52.2c6.9-25.9,13.8-51.9,21.5-77.6c11.9-39.6,27.7-77.8,45.9-114.9c11.4-23.2,24.3-45.7,37.3-68
		c28.5-48.7,62.9-93.3,100.7-135c47-51.7,98.9-98,156.5-137.9c44.3-30.7,90.6-57.9,139.1-81.2c49.4-23.8,100.9-42.3,153.8-56.8
		c40.9-11.1,82.3-19.6,124-26.1c21.1-3.3,42.5-4.8,63.8-7c49.2-5.1,98.5-3.5,147.7-2.3c19.8,0.5,39.7,3.1,59.4,5.4
		c43.6,5,86.6,12.8,129,24.1c29.8,7.9,59.6,16.2,88.4,27.2c31.6,12.1,62.6,25.7,93,40.6c36.7,18,71.5,39.4,105.3,62.2
		c38.9,26.2,75,56,108.9,88.3c28.5,27.1,55.7,55.5,80.5,86.1c29.4,36.4,56.2,74.7,79.8,115.3c19,32.8,36.2,66.4,50.7,101.3
		c21.9,53,38.8,107.5,50.6,163.6c5.7,27.3,10.8,54.6,12.8,82.5c0.3,5,1.3,9.8,2,14.8c0.7,5-1.2,8.7-5.8,10.9c-1.3,0.7-2.6,1.5-4,2.1
		c-32.1,15-62.7,32.7-91.9,52.6c-23.4,15.9-46.2,32.9-68.3,50.6c-23.7,19-46.2,39.4-69.2,59.1c-2.2,1.9-4.5,3.8-7.4,6.2
		c-3.6-5.1-2.3-10.2-2.3-14.8c-0.1-25.4,0.2-50.8,0.1-76.1c0-56-7.5-111-21-165.4c-13-52.5-32.9-102.3-58.8-149.5
		c-20.1-36.7-44.1-71-71.1-103c-28.6-34-60.6-64.6-95-92.5c-20.9-17-43.5-31.5-66.4-45.6c-45.6-28-94-49.7-145.1-65.7
		c-27.1-8.5-54.4-15.9-82.3-20.9c-31.8-5.8-63.8-10.7-96.2-11.2c-10.5-0.2-20.9-1.2-31.3-1.2c-35.8-0.1-71.5,1.5-107.2,6.6
		c-15.7,2.2-31.5,3.8-47.2,6.7c-36.2,6.8-71.7,16.5-106.6,28.3c-33.1,11.2-64.7,25.8-95.2,42.6c-28.4,15.6-55.6,33-80.5,54
		c-15.6,13.1-32,25.3-47,39.1c-29.7,27.4-56.4,57.5-79.1,91.1c-11.7,17.3-23.3,34.7-34.5,52.3c-17.1,27-30.7,55.8-42.1,85.5
		c-12.7,33-23,66.8-29.1,101.7c-6.1,35.3-10.5,70.8-10.3,106.8c0.1,37.3,0.5,74.6,0.8,112c0.1,13.9-1.7,15.3-15.5,14.4
		c-29.3-1.9-58.6-2.3-88,0.3c-28.8,2.6-57.4,6.1-85.4,13.3c-35.7,9.1-70.3,21.5-103.4,38.2c-45.4,22.8-85.7,52.5-121.7,88
		c-19.8,19.5-37.2,41.4-53.3,64.2c-14.6,20.8-27.4,42.7-39.4,65.1c-10.3,19.3-18.3,39.7-26.5,60c-13.1,32.4-22.1,66.1-28.1,100.4
		c-8.4,48.5-13.1,97.4-8.6,147c3.5,38.8,9.5,77.1,20.1,114.4c12.8,44.6,30.5,87.3,54.2,127.4c22.9,38.9,50.8,73.8,82.6,105.5
		c14.4,14.4,30.3,27.2,46.9,39.2c23.4,17,47.8,32.4,73.8,45.1c14.3,7,28.7,13.9,43.7,19.2c33.3,11.9,67.4,21.3,102.7,25.3
		c17.3,2,34.7,3.9,52.1,3.9c149.4,0.4,298.8,0.3,448.2,0.4c135,0.1,269.9,0.3,404.9,0.2c171.8,0,343.6-0.2,515.4-0.3
		c73.2,0,146.4,0,219.6-0.2c12.4,0,24.9-1.1,37.2-2.5c19.8-2.2,39.6-4.3,59.1-8c32.4-6.2,63.3-17.2,93.2-31.1
		c45-21,86-48.1,122.6-81.5c25.4-23.2,47.7-49.3,67.3-77.7c21.8-31.7,40.3-65.1,55.2-100.5c15.6-37.3,27.4-75.9,34-115.7
		c9.2-56.3,10.2-113,3.5-169.6c-7.7-64.6-24.8-126.8-52.3-185.9c-13.2-28.5-27.7-56.3-45.7-82c-18.9-26.9-39.5-52.4-62.7-75.8
		c-28.2-28.4-59-53.4-92.4-75.3c-1.6-1-2.7-2.7-4-4C2687.3,1239.2,2687.9,1238.6,2688.5,1237.9z"/>
	<path class="st1" d="M1906.2,1840.5c-30.8,0-61.7-0.2-92.5,0.2c-10.1,0.1-15.8-4-19-13.2c-3.3-9.4-6.9-18.6-10.3-27.9
		c-6.9-18.7-14.1-37.2-20.6-56c-3.7-10.8-10.6-16.4-21.9-16.9c-3.5-0.2-7-0.2-10.4-0.2c-74.1-0.1-148.3-0.1-222.5-0.2
		c-2.5,0-5,0.1-7.5,0.1c-7.8,0-13.3,3.4-16.3,10.7c-1.5,3.7-3.5,7.2-4.9,10.9c-7.1,19.1-14,38.2-21,57.4c-2.4,6.5-5,13-7.1,19.6
		c-3.6,11.1-11.3,15.4-22.7,15.3c-22.4-0.2-44.8,0.1-67.2,0c-13.4,0-26.8-0.2-40.3-0.4c-2.5,0-5,0.1-7.5,0
		c-9.5-0.4-12.2-4-10.1-13.4c0.6-2.4,1.2-5,2.6-6.9c5.6-7.8,8.2-17,11.1-25.9c0.6-1.9,1.4-3.7,2.1-5.6
		c14.9-36.3,30.3-72.4,44.3-109.1c10.8-28.3,23.8-55.7,33.4-84.5c6.8-20.2,15.9-39.7,23.9-59.5c8.2-20.2,16.4-40.5,24.6-60.8
		c0.6-1.4,0.9-2.9,1.6-4.2c12-23,18-48.5,29.2-71.7c13.8-28.7,23.8-58.9,36.7-88c10.1-22.7,18.7-46,28.1-69
		c1.5-3.6,3.2-7.2,5.4-10.5c3.6-5.2,8.6-8.1,15.2-7.9c2,0.1,4,0,6,0c27.3,0.4,54.7,0.9,82,1c12.9,0.1,25.8-0.7,38.8-1
		c3.5-0.1,7,0,10.4,0.2c10.2,0.4,16.4,6.2,19.9,15.4c6.4,17.2,11.6,35,19.3,51.6c7.1,15.3,9.6,32.4,18.7,46.8
		c1.8,2.9,2.9,6.4,3.8,9.7c4.9,18.9,12.8,36.6,20.5,54.4c5.1,11.8,9.2,24.1,14,36.1c2.6,6.5,5.8,12.7,8.2,19.2
		c2.2,6,3.9,12.3,5.7,18.5c0.8,2.9,1.2,5.9,2.5,8.6c12.6,24.9,21.4,51.3,31.9,77c8.1,19.8,15.9,39.7,23.8,59.5
		c1.1,2.8,2.3,5.6,2.8,8.5c1.8,9.4,6,17.7,10.2,26.2c5.9,12,10,24.8,14.9,37.3c1.6,4.2,2.9,8.4,4.5,12.6c7.2,19,14.4,38.1,21.6,57
		c2,5.1,4.1,10.1,6.2,15.2c1.9,4.6,4.4,9.1,5.5,13.8c2.2,9.8,5.8,18.9,10.8,27.7c2.1,3.7,3,8.4,3.6,12.7c0.7,4.6-1.8,7.5-6.6,8.2
		c-4.4,0.7-8.9,0.9-13.4,1c-7.5,0.2-14.9,0-22.4,0C1906.2,1840.3,1906.2,1840.4,1906.2,1840.5z M1713.2,1608.1
		c-0.1-11.3-3.4-21.7-7.6-31.8c-2.1-5-4.9-9.9-6.5-15c-11.2-35-26.9-68.4-37.2-103.7c-0.7-2.4-1.8-4.6-2.6-7
		c-5-13.5-9.8-27.1-14.9-40.5c-4.2-11.1-8.4-22.3-13-33.3c-1.4-3.4-2.5-7.8-9.1-8.1c-0.2,0.4-1.2,1.6-1.8,3
		c-9,19.8-15.3,40.8-24.8,60.5c-0.2,0.4-0.2,1-0.4,1.4c-2.9,7.9-5.6,15.9-8.7,23.7c-4.9,12.5-11.3,24.5-14.7,37.3
		c-5.1,18.8-16.8,35-19.8,54.5c-0.4,2.8-2.4,5.4-3.8,8.1c-7.7,14.1-11,29.8-15.5,45c-1.5,5.2,0.6,8.7,6.2,9.8
		c4.8,1,9.8,1.2,14.8,1.2c36.8-0.2,73.5-0.6,110.3-0.7c10.4,0,20.9,0.8,31.3,1.2C1701.3,1613.6,1707.4,1613.9,1713.2,1608.1z"/>
	<path class="st1" d="M2189.3,1530.9c0,94.5,0,189-0.1,283.5c0,5.9-0.8,11.9-1.7,17.7c-0.6,3.7-3.4,6.2-7.1,6.7
		c-5.4,0.7-10.9,1.6-16.3,1.6c-28.9,0.2-57.7,0.2-86.6,0c-7.9,0-15.9-0.7-23.8-1.3c-6.4-0.4-9.9-4.5-11-10.4
		c-0.7-3.9-0.6-7.9-0.5-11.9c0.5-15.9,1.6-31.8,1.7-47.6c0.2-46.2,0-92.5,0-138.7c0-44.3-0.1-88.5,0-132.8
		c0.1-47.7,0.5-95.5,0.7-143.2c0.1-35.3-0.1-70.6-0.2-105.9c0-4.5,0.1-9,0.7-13.4c0.7-5.4,4-9.2,9.5-10.1c4.9-0.8,9.9-1.2,14.8-1.2
		c34.8,0.2,69.7,0.4,104.5,0.7c14.1,0.1,15.4,1,15.4,15.3c0.2,42.8,0.1,85.5,0.1,128.3C2189.4,1422.5,2189.4,1476.7,2189.3,1530.9
		C2189.4,1530.9,2189.4,1530.9,2189.3,1530.9z"/>
	<path class="st0" d="M3054.6,1266.6c-2.7-2.9-5.4-5.7-8.1-8.6c-20.5-23-40.9-46.1-63.2-67.4c-35-33.5-72.7-63.5-115.3-86.6
		c-39-21.1-79.5-38.8-123-48.6c-21.3-4.8-42.7-9.3-64.3-12.5c-18.2-2.6-36.6-3-55-4.4c-2.7-0.2-5.4-0.3-11.1-0.7
		c4.1-1.7,5.3-2.7,6.6-2.7c16.4,0.2,32.8,0.1,49.2,1c22.4,1.2,44.4,5,66.2,10.1c23.3,5.3,46.1,12,68.5,20.3
		c23.4,8.6,45.8,19.2,67.7,31.1c36.4,19.9,69.6,44.3,100.5,71.9c27.9,24.9,52.7,52.8,75.2,82.6
		C3051.7,1256.2,3055.4,1260.3,3054.6,1266.6z"/>
</g>
</svg>
