<?xml version="1.0" standalone="no"?><!DOCTYPE svg PUBLIC "-//W3C//DTD SVG 1.1//EN" "http://www.w3.org/Graphics/SVG/1.1/DTD/svg11.dtd"><svg t="1707304842943" class="icon" viewBox="0 0 1299 1024" version="1.1" xmlns="http://www.w3.org/2000/svg" p-id="3425" xmlns:xlink="http://www.w3.org/1999/xlink" width="253.7109375" height="200"><path d="M570.65336656 49.18902781c58.89276844-9.52818 120.39501281-4.23740625 177.15710719 14.50773 1.2688275 0.26334188 3.75860343 0.76608469 5.00349094 1.02942656 39.76458844 13.55012438 76.44089813 34.95261844 109.47830437 60.71221969 36.14962594 29.11122188 66.24239437 65.52418969 88.55461407 106.17456375 26.69326687 46.8269325 44.24139655 100.42892812 42.68528624 154.72518657-29.70972562 12.44887781-54.96658313 33.18104719-79.40947593 53.74563656-20.94763125 18.21845344-35.43142125 42.15860345-52.30922719 63.92019937 3.39950156-20.92369031 28.82394-33.61197001 28.8-55.66084781 3.49526156-17.28478781 2.84887781-34.92867844 3.20797969-52.45286813 0.07182-15.29775563-1.62793031-30.52369031-5.02743094-45.43840406-5.43441375-28.53665812-17.61994969-55.42144594-32.84588531-80.03192062-26.358105-43.69077281-66.48179531-78.61945125-113.18902782-99.08827875-27.12418969-12.041895-56.57057344-18.69725719-86.06483718-21.16309219-12.76009969 0.93366562-25.42443844-2.82493781-38.08877813-0.55062375-10.36608469 1.38852844-21.11521219-0.79002469-31.194015 2.53765594-4.76409001 0.52668375-9.52818 0.90972562-14.26832906 1.38852843-13.90922719 3.44738156-27.79451344 7.03840406-41.32069875 11.73067313-33.85137188 12.71221969-64.08778031 33.56408999-90.32618438 58.19850375-24.89775562 26.19052406-45.605985 56.78603531-58.1027428 90.80498812-3.32768063 10.31820469-8.4029925 20.56458844-7.75660876 31.64887782a109.83740625 109.83740625 0 0 1 45.03142125 13.76558625c0.86184562 1.43640937 2.58553594 4.33316719 3.47132156 5.79351562-22.62344156-0.07182-42.66134625 16.734165-49.26882749 37.80149625-3.27980063 8.28329156-4.28528719 17.18902781-4.76409001 26.02294314l-0.86184562-9.19301814c-0.50274281 9.07331625-0.64638375 18.14663344-0.81396469 27.21995063-25.54413938-1.05336656-51.20797969 1.62793031-75.74663343 8.85785531-61.81346625 19.22394-113.26084781 68.3970075-135.71670844 129.06134625-14.74713187 37.05935156-16.20748125 77.66184562-12.64039875 116.92369125 3.06433875 16.15960125 6.20049844 32.58254345 12.95162062 47.68877812 0.19152094 0.83790562 0.59850375 2.48977594 0.79002469 3.32768063 13.52618437 30.57157125 31.55311689 59.87431406 57.09725719 81.89925187 29.9730675 26.50174594 68.3251875 45.03142125 108.85586062 45.48628408 46.51571062 0.16758094 93.03142125-0.40698281 139.54713188 0.31122186 0.26334188 32.72618438 1.2209475 65.47630969 0.83790562 98.22643406-5.88927655 1.74763125-12.065835 1.72369031-18.14663343 1.58005032-46.39600969-0.19152094-92.76807937 0.26334188-139.16409-0.07182094-49.74763125-4.81196999-98.32219406-23.17406438-138.03890251-53.72169563-43.66683281-32.4389025-76.84788-77.66184562-99.30374062-126.93067312-14.17256813-31.55311689-23.03042437-65.42842875-26.358105-99.85436438-5.69775563-39.19002469-1.60399031-79.31371594 7.92418969-117.570075 11.56309219-45.77356594 34.11471281-88.746135 64.08778031-125.13516187 36.77206969-43.40349094 85.2508725-77.37456375 139.66683281-94.51571063 1.91521219-5.69775563 3.20797969-11.56309219 4.45286813-17.42842875 5.38653375-19.43940187 11.10822937-38.80698281 18.52967531-57.57606 12.99950156-33.08528719 29.35062375-65.02144594 50.20249406-93.86932687 36.005985-45.82144594 81.94713187-84.22144594 134.42394-109.86134625 14.62743187-7.34962594 29.80548656-13.57406437 45.07930219-19.46334188l5.36259375-1.1491275c18.52967625-6.96658313 37.99301719-11.32369031 57.52817906-14.36408906zM1060.10972563 392.56259375c-19.34364094-2.92069781-38.87880281-3.71072345-58.24638375-6.77506219 22.88678343-2.51371594 45.653865 1.50822937 67.82244375 6.77506219l0.04788 1.60398938c25.1850375 4.57256813 47.52119719 18.76907719 68.10972562 33.42044906 19.24788 16.54264313 37.34663344 34.8089775 50.70523688 56.57057343-3.51920156-3.25586062-6.96658313-6.58354125-10.29426375-10.03092187-23.60498719-32.22344156-56.09177062-58.94064844-93.96508783-72.41895281l0.02394-2.346135c-1.86733125 0.14364094-5.57805469 0.40698281-7.44538592 0.52668375l0.33516187-2.274315c-5.67381562-0.90972562-11.22793031-2.370075-16.853865-3.39950063l-0.23940187-1.65187031z" fill="#FF8F00" p-id="3426"></path><path d="M617.62394 442.54962594c19.67880281-1.72369031 39.71670844-0.71820469 58.62942656 5.43441375 2.51371594 0.83790562 5.02743187 1.67581031 7.56508688 2.48977593 38.30423906 14.34014999 67.96608469 46.8029925 82.7610975 84.50872783 3.75860343 10.67730656 7.03840406 21.641895 7.97206968 32.96558624 0.40698281 5.36259375 1.1491275 10.7251875 3.08827969 15.77655844 10.96458844-0.69426469 21.665835 2.08279312 32.58254344 2.48977593 34.90473844 3.51920156 67.70274281 23.36558625 86.90274375 52.76409 9.24089813 13.40648345 14.55561094 29.08728187 17.81147063 44.93566031 1.65187031 7.73266875 1.07730656 15.75261844 3.01645876 23.46134719l0.47880374 5.33865281c-12.16159594 1.41246844-24.41895281 0.45486281-36.62842969 0.71820469-43.21197001 0.04788-86.42394 0.14364094-129.63591-0.04788-8.88179531 17.54812969-18.21845344 35.40748125-33.25286813 48.57456281-23.74862812 19.94214469-54.79900219 32.05586063-86.04089718 29.9730675-45.19900219-1.91521219-91.83441375-27.69875344-109.43042438-70.8628425-1.46034938-3.18403969-3.16009969-7.90024969-7.46932687-7.46932687-49.98703219-0.33516187-99.97406438 0.21546094-149.96109657-0.43092281-1.84339125-24.15561094 3.30374063-49.02942656 15.94413938-69.80947594 15.75261844-26.358105 42.58952625-44.72019937 71.53316719-53.86533656 3.20797969-0.81396469 6.39202031-1.62793031 9.57606-2.56159594 4.76409001-0.52668375 9.64788-0.86184562 14.19650812-2.53765594 4.35710719-0.50274281 8.73815438-0.83790562 13.1192025-1.1491275 0.31122187-4.18952625 0.62244375-8.3551125 1.02942656-12.52069781 3.37556156-27.50723156 13.2628425-54.58354125 31.45735594-75.79451438 23.89226906-28.17755625 58.41396469-46.56359063 94.7551125-52.38104718z" fill="#FF8F00" p-id="3427"></path><path d="M1166.73915219 500.65236875c7.68478781-3.49526156 15.94413938-6.48778031 22.0488778-12.56857781 19.79850375 29.42244375 33.01346625 62.91471281 43.04438907 96.79002469 4.62044906 18.0748125 7.182045 36.60448875 8.59451344 55.158105-0.47880281 26.26234406 1.89127219 52.74015001-2.489775 78.76309218-0.93366562 11.44339125-3.78254345 22.59950156-6.17655938 33.80349094-10.7251875 41.12917687-27.96209437 80.86982531-53.38653375 115.10423906-33.68379094 45.36658313-79.88827969 82.33017469-133.58603438 100.81197-19.89426469 7.49326687-41.17705781 9.95910187-62.19650905 12.06583594-49.53216938 0.23940187-99.08827969-0.09576094-148.62044907 0.16758094-3.75860343 0.11970094-7.37356594-0.81396469-10.9406475-1.77157125-1.91521219-11.58703219 0.26334188-23.24588531-0.09576094-34.8807975 0.35910188-21.18703219-0.16758094-42.35012438 0.09576094-63.51321751 51.44738156-0.47880281 102.96658311 0.81396469 154.41396469-0.62244374 73.54413938-12.44887781 133.99301719-73.1371575 153.16907719-144.23940188 15.05835375-55.70872781 9.26483812-115.94214469-11.68279313-169.35261844-16.25536125-39.07032375-44.83990031-72.22743187-79.00249312-96.90972562 25.1610975 11.37157125 41.15311689 35.02443844 64.68628406 48.4548628 9.02543625 2.82493781 18.64937625 1.50822937 27.38753063-1.7236903 11.73067312-4.78802999 23.36558625-9.91122188 34.7371575-15.5371575z" fill="#FF8F00" p-id="3428"></path></svg>