<?xml version="1.0" encoding="UTF-8" ?>
<!DOCTYPE svg PUBLIC "-//W3C//DTD SVG 1.1//EN" "http://www.w3.org/Graphics/SVG/1.1/DTD/svg11.dtd">
<svg width="512pt" height="439pt" viewBox="0 0 512 439" version="1.1" xmlns="http://www.w3.org/2000/svg">
<g id="#030304ff">
<path fill="#030304" opacity="1.00" d=" M 279.73 3.65 C 289.86 5.56 300.12 7.30 309.94 10.61 C 316.12 12.72 322.20 15.10 328.18 17.72 C 330.15 18.76 332.14 19.76 334.17 20.70 C 355.77 32.67 376.58 46.43 394.70 63.29 C 402.06 69.37 408.33 76.67 413.92 84.38 C 414.67 84.49 415.42 84.60 416.18 84.70 C 422.34 85.87 427.61 89.42 432.49 93.18 C 452.77 108.64 468.08 130.18 477.18 153.92 C 482.19 166.60 483.57 180.58 482.17 194.09 C 481.58 201.26 479.64 208.30 476.76 214.89 C 469.83 232.95 454.17 245.95 437.22 254.30 C 435.16 255.24 433.09 256.18 431.04 257.14 C 424.04 260.26 416.99 263.29 409.73 265.76 C 407.14 266.70 404.35 266.65 401.65 266.75 C 401.57 262.65 403.58 258.90 403.68 254.81 C 404.92 251.67 404.56 248.25 404.81 244.95 C 406.68 235.67 404.94 226.24 404.31 216.94 C 404.16 216.49 403.84 215.59 403.69 215.14 C 403.36 210.95 402.14 206.93 400.92 202.93 C 394.93 184.03 385.62 165.56 371.01 151.85 C 362.32 143.23 353.14 135.10 343.28 127.83 C 326.02 114.26 306.52 103.03 285.04 97.80 C 281.13 97.35 277.37 96.18 273.58 95.22 C 273.34 91.47 273.14 87.68 273.92 83.98 C 275.52 76.14 273.55 67.98 275.35 60.18 C 276.18 49.15 275.87 38.02 277.41 27.05 C 277.67 19.80 277.08 12.47 278.67 5.32 C 278.94 4.91 279.47 4.07 279.73 3.65 Z" />
<path fill="#030304" opacity="1.00" d=" M 242.88 7.60 C 244.77 7.44 246.66 7.37 248.56 7.28 C 248.84 8.48 249.07 9.69 249.26 10.92 C 248.30 24.93 248.84 39.02 248.78 53.06 C 249.63 59.67 249.23 66.37 250.16 72.97 C 250.46 80.05 250.28 87.15 250.36 94.24 C 248.98 94.83 247.63 95.56 246.10 95.62 C 232.37 97.11 219.19 101.77 206.81 107.75 C 202.34 110.68 196.20 112.02 193.53 117.02 C 197.80 117.11 201.66 118.99 205.02 121.50 C 212.85 126.40 217.91 134.34 223.23 141.65 C 233.18 155.70 243.93 169.17 253.48 183.50 C 254.89 185.40 256.10 188.25 258.98 187.70 C 268.94 175.42 279.11 163.32 289.18 151.14 C 295.02 144.05 302.00 137.50 310.99 134.77 C 311.51 134.65 312.54 134.40 313.06 134.28 C 318.85 132.42 324.89 131.17 331.01 131.62 C 337.24 131.14 343.74 132.31 348.95 135.94 C 352.44 138.46 356.57 140.67 358.10 144.98 C 358.30 146.35 358.50 147.72 358.70 149.10 C 349.63 160.17 340.61 171.28 331.72 182.50 C 319.71 198.57 306.73 213.89 294.49 229.79 C 294.47 230.66 294.44 232.39 294.42 233.26 C 306.34 247.47 316.93 262.78 328.86 277.01 C 355.63 309.72 382.29 343.11 415.57 369.56 C 429.24 380.12 443.02 390.67 458.20 399.01 C 470.41 406.48 483.69 411.90 496.87 417.40 C 499.00 418.24 501.15 419.06 503.32 419.82 C 503.39 420.28 503.52 421.18 503.59 421.64 C 498.38 424.74 493.87 429.22 487.99 431.04 C 482.70 431.84 477.33 431.48 472.01 431.58 C 441.67 431.46 411.33 431.51 380.99 431.50 C 378.54 431.59 376.13 431.17 373.83 430.35 C 368.48 419.01 358.62 410.68 349.49 402.42 C 340.00 393.14 330.65 383.71 321.31 374.29 C 296.74 347.64 276.28 317.61 255.15 288.26 C 251.52 290.17 249.48 293.89 247.02 297.01 C 236.65 310.60 225.64 323.70 215.31 337.32 C 201.86 353.60 189.40 370.67 175.37 386.45 C 162.07 401.77 148.83 417.27 133.37 430.49 C 99.93 430.93 66.48 430.54 33.03 430.63 C 28.08 430.99 23.42 429.03 19.15 426.75 C 15.77 425.10 12.30 423.65 8.93 421.98 C 10.47 420.71 12.08 419.50 13.95 418.75 C 20.11 416.07 26.16 413.16 32.20 410.24 C 42.70 404.56 53.08 398.63 62.85 391.76 C 92.06 370.88 118.52 346.45 143.37 320.60 C 161.50 301.25 178.59 280.96 196.11 261.06 C 203.60 252.96 210.19 244.08 217.50 235.84 C 217.72 233.60 217.17 231.44 215.72 229.71 C 204.04 213.50 193.19 196.71 181.80 180.30 C 175.39 170.88 168.75 161.47 164.14 151.00 C 162.81 148.39 161.83 145.58 160.09 143.20 C 157.45 144.25 155.71 146.67 153.69 148.56 C 137.01 165.15 121.11 182.94 109.76 203.68 C 107.20 208.14 105.66 213.07 103.23 217.59 C 96.11 217.18 89.09 215.68 82.04 214.69 C 78.59 214.45 75.10 214.76 71.67 214.26 C 61.85 212.54 51.81 214.05 41.95 212.70 C 35.52 212.37 29.09 212.06 22.70 211.25 C 24.28 200.15 26.41 189.11 28.96 178.17 C 33.55 162.46 40.51 147.38 50.00 134.01 C 60.54 119.74 73.47 107.51 86.23 95.28 C 97.40 84.75 108.72 74.34 120.99 65.09 C 148.47 43.19 178.76 23.56 212.92 14.07 C 216.89 12.86 220.90 11.73 225.02 11.18 C 230.92 9.70 237.02 9.09 242.88 7.60 Z" />
</g>
</svg>
