<?xml version="1.0" standalone="no"?><!DOCTYPE svg PUBLIC "-//W3C//DTD SVG 1.1//EN" "http://www.w3.org/Graphics/SVG/1.1/DTD/svg11.dtd"><svg t="1715358351814" class="icon" viewBox="0 0 1194 1024" version="1.1" xmlns="http://www.w3.org/2000/svg" p-id="938" xmlns:xlink="http://www.w3.org/1999/xlink" width="233.203125" height="200"><path d="M652.490934 8.513895c23.628975 4.455216 47.561185 8.513895 70.467061 16.234715 14.415308 4.921731 28.597358 10.473257 42.546151 16.584602 4.595171 2.425877 9.236993 4.758451 13.972118 6.95107 50.383599 27.920911 98.924465 60.01713 141.190706 99.344328 17.167745 14.18205 31.792984 31.209841 44.832073 49.193987 1.749431 0.256583 3.498861 0.513166 5.271618 0.746424 14.368656 2.729112 26.661321 11.009749 38.044282 19.780227 47.304601 36.061595 83.01631 86.305239 104.242734 141.680547 11.686196 29.577039 14.905148 62.186424 11.639544 93.699499-1.376219 16.724556-5.901412 33.145877-12.619226 48.51754-16.164738 42.126287-52.692847 72.449749-92.229977 91.926742-4.805103 2.19262-9.633531 4.385239-14.415307 6.624511-16.328018 7.277631-32.772665 14.34533-49.707153 20.106788-6.041367 2.19262-12.549248 2.075991-18.847198 2.309248-0.186606-9.563554 4.501868-18.310706 4.735125-27.850934 2.892392-7.324282 2.052665-15.301686 2.635809-22.99918 4.361913-21.646287 0.303235-43.64246-1.166287-65.335399-0.349886-1.049658-1.09631-3.148975-1.446196-4.198633-0.769749-9.773485-3.61549-19.150433-6.46123-28.480729-13.972118-44.085649-35.688383-87.168292-69.767289-119.147881-20.270068-20.106788-41.683098-39.070615-64.682278-56.028429-40.260228-31.65303-85.745421-57.847836-135.849112-70.047198-9.120364-1.049658-17.890843-3.77877-26.731298-6.018041-0.559818-8.747153-1.026333-17.587608 0.793075-26.218132 3.732118-18.28738-0.863052-37.321185 3.335581-55.515262 1.936036-25.728292 1.212938-51.689841 4.805102-77.278177 0.606469-16.911162-0.769749-34.008929 2.939043-50.686834 0.629795-0.956355 1.866059-2.915718 2.472529-3.895399z" p-id="939" fill="#034FD8"></path><path d="M566.535581 17.727563c4.408565-0.373212 8.81713-0.536492 13.24902-0.746424 0.653121 2.799089 1.189613 5.621503 1.632802 8.490569-2.239271 32.679362-0.979681 65.54533-1.119635 98.29467 1.982688 15.418314 1.049658 31.04656 3.218952 46.441549 0.699772 16.514624 0.279909 33.0759 0.466515 49.61385-3.218952 1.376219-6.367927 3.078998-9.936766 3.218952-32.026241 3.475535-62.769567 14.34533-91.646833 28.294123-10.426606 6.834442-24.74861 9.960091-30.976584 21.622961 9.960091 0.209932 18.963827 4.595171 26.801276 10.449932 18.264055 11.429613 30.066879 29.950251 42.476173 47.001367 23.209112 32.772665 48.284282 64.192437 70.560365 97.618223 3.288929 4.431891 6.111344 11.079727 12.829157 9.796811 23.232437-28.644009 46.954715-56.868155 70.443736-85.278907 13.622232-16.53795 29.903599-31.81631 50.873439-38.184237 1.212938-0.279909 3.61549-0.863052 4.828428-1.142961 13.505604-4.338588 27.594351-7.254305 41.869704-6.204647 14.531936-1.119636 29.693667 1.609476 41.846378 10.07672 8.140683 5.878087 17.774214 11.033075 21.343053 21.086469l1.399544 9.610205c-21.156446 25.821595-42.196264 51.736492-62.932847 77.907973-28.014214 37.484465-58.291025 73.219499-86.841731 110.307426-0.046651 2.029339-0.116629 6.064692-0.163281 8.094032 27.804282 33.145877 52.506241 68.857585 80.33385 102.050114 62.443007 76.298497 124.629431 154.183144 202.257494 215.879726 31.886287 24.631982 64.029157 49.240638 99.437631 68.694305 28.480729 17.424328 59.457312 30.066879 90.200638 42.896037 4.968383 1.959362 9.983417 3.872073 15.045103 5.644829 0.16328 1.072984 0.466515 3.172301 0.629795 4.245285-12.152711 7.230979-22.67262 17.680911-36.388155 21.926196-12.339317 1.866059-24.865239 1.026333-37.274533 1.25959-70.770296-0.279909-141.540592-0.16328-212.310889-0.186606-5.714806 0.209932-11.33631-0.769749-16.70123-2.68246-12.479271-26.45139-35.478451-45.881731-56.774852-65.148793-22.136128-21.646287-43.945695-43.64246-65.731936-65.615308-57.311344-62.163098-105.035809-132.210296-154.323098-200.671344-8.467244 4.455216-13.225695 13.132392-18.963827 20.410023-24.188793 31.699681-49.870433 62.256401-73.965922 94.026059-31.373121 37.974305-60.436993 77.791344-93.163007 114.599363-31.023235 35.735034-61.906515 71.889932-97.968109 102.72656-78.001276 1.026333-156.025877 0.116629-234.050479 0.32656-11.546241 0.839727-22.416036-3.732118-32.376127-9.050387-7.8841-3.848747-15.978132-7.230979-23.838907-11.126378 3.592164-2.962369 7.347608-5.784784 11.709522-7.534214 14.368656-6.251298 28.480729-13.039089 42.569476-19.850205 24.492027-13.249021 48.704146-27.081185 71.493394-43.105968 68.134487-48.704146 129.854396-105.688929 187.818861-165.985968 42.289567-45.135308 82.153257-92.463235 123.019954-138.881458 17.470979-18.89385 32.842642-39.607107 49.893759-58.827517 0.513166-5.224966-0.769749-10.263326-4.151982-14.298679-27.244465-37.811025-52.552893-76.974943-79.120911-115.252483-14.9518-21.972847-30.440091-43.922369-41.193257-68.344419-3.102323-6.088018-5.388246-12.642551-9.446925-18.194078-6.157995 2.449203-10.216674 8.094032-14.928474 12.502597-38.907335 38.697403-75.995262 80.193895-102.469977 128.571481-5.97139 10.40328-9.563554 21.90287-15.231709 32.446105-16.607927-0.956355-32.982597-4.455216-49.427243-6.764465-8.04738-0.559818-16.188064 0.16328-24.188793-1.003007-22.905877-4.012027-46.32492-0.489841-69.3241-3.638815-14.998451-0.769749-29.996902-1.492847-44.90205-3.382233 3.685467-25.891572 8.65385-51.643189 14.601913-77.161549 10.706515-36.644738 26.94123-71.819954 49.077358-103.006469 24.58533-33.285831 54.745513-61.813212 84.509157-90.340592 26.054852-24.562005 52.45959-48.8441 81.080273-70.42041 64.099134-51.083371 134.752802-96.8718 214.433531-119.007927 9.260319-2.822415 18.613941-5.458223 28.224146-6.741139 13.762187-3.45221 27.990888-4.87508 41.659772-8.350615z" p-id="940" fill="#034FD8"></path></svg>